<svg width="946" height="97" viewBox="0 0 946 97" fill="none" xmlns="http://www.w3.org/2000/svg">
<path d="M26.6241 4.86399C28.7574 4.86399 30.6347 6.39999 32.2561 9.47199C30.3787 14.848 28.6721 20.6507 27.1361 26.88C28.2454 27.9893 30.6347 29.696 34.3041 32V33.536C34.3041 34.1333 32.0854 34.9867 27.6481 36.096V39.68L27.1361 43.264C35.2427 35.072 40.0214 30.976 41.4721 30.976C42.7521 28.416 43.7761 22.784 44.5441 14.08L47.1041 12.032H47.6161C48.4694 12.032 49.1521 13.3973 49.6641 16.128L51.2001 15.104H51.7121C54.4427 15.5307 60.0747 23.7227 68.6081 39.68C73.8987 48.896 78.8481 53.504 83.4561 53.504C85.5041 54.528 86.5281 55.8933 86.5281 57.6C82.3467 59.392 79.2747 60.928 77.3121 62.208C72.6187 62.208 69.0347 62.5493 66.5601 63.232L65.5361 62.72C65.1094 62.72 64.5974 62.8907 64.0001 63.232C60.7574 63.232 57.0027 61.184 52.7361 57.088H52.2241C50.6027 59.136 48.8961 60.16 47.1041 60.16L45.5681 57.6C46.5921 55.8933 47.1041 54.528 47.1041 53.504C45.7387 52.3947 43.5201 51.5413 40.4481 50.944C38.4854 57.344 37.1201 60.7573 36.3521 61.184H35.8401V60.16L37.8881 50.944V50.432C35.4134 50.432 32.8534 49.2373 30.2081 46.848L26.1121 50.944C26.1121 51.968 26.6241 55.8933 27.6481 62.72H27.1361L27.6481 63.744C27.6481 65.1093 27.3067 66.4747 26.6241 67.84L27.1361 70.912H26.6241C26.9654 71.5093 27.1361 72.0213 27.1361 72.448L26.6241 74.496L27.1361 75.52C26.5387 79.9573 25.6854 82.176 24.5761 82.176H23.5521C18.1761 78.336 14.5921 74.0693 12.8001 69.376C11.7761 69.376 8.87473 71.2533 4.09606 75.008H3.07206C2.56006 75.008 1.8774 74.3253 1.02406 72.96C3.9254 66.9013 8.19206 61.7813 13.8241 57.6C19.6267 52.0533 22.5281 48.2987 22.5281 46.336C22.8694 43.264 23.0401 40.704 23.0401 38.656C22.6987 38.656 22.5281 38.4853 22.5281 38.144C14.0801 42.24 9.3014 44.288 8.19206 44.288H3.58406C1.19473 43.1787 6.29425e-05 41.6427 6.29425e-05 39.68C1.79206 39.68 8.2774 36.9493 19.4561 31.488C22.8694 31.488 24.5761 28.416 24.5761 22.272C24.5761 19.8827 25.2587 15.7867 26.6241 9.98399V7.93599L25.6001 6.39999V5.88799C25.7707 5.20532 26.1121 4.86399 26.6241 4.86399ZM42.4961 45.312C46.5921 46.1653 48.6401 46.848 48.6401 47.36H49.6641V25.856L49.1521 23.296C50.0907 22.6133 50.9441 22.272 51.7121 22.272V21.76C51.7121 21.0773 51.3707 20.736 50.6881 20.736H50.1761C48.8107 20.736 46.9334 26.88 44.5441 39.168C43.1787 42.496 42.4961 44.544 42.4961 45.312ZM55.8081 25.856C54.4427 27.4773 53.7601 32.4267 53.7601 40.704V47.872C54.6134 54.3573 58.0267 57.6 64.0001 57.6H64.5121C65.4507 57.6 66.8161 57.2587 68.6081 56.576C64.5121 42.24 60.4161 32 56.3201 25.856H55.8081ZM31.7441 44.8L35.3281 45.312H38.9121L41.9841 32.512C39.3387 34.6453 35.9254 38.5707 31.7441 44.288V44.8ZM19.9681 69.888C20.6507 68.352 20.9921 66.4747 20.9921 64.256V59.648L21.5041 58.624H20.9921C16.5547 63.0613 14.3361 65.6213 14.3361 66.304L19.9681 69.888ZM57.8561 77.056C59.1361 76.7147 60.5014 76.544 61.9521 76.544H62.4641L65.5361 77.056C65.8774 77.056 66.0481 76.8853 66.0481 76.544C70.3147 76.544 73.3867 78.08 75.2641 81.152V81.664C75.2641 84.5653 70.4854 87.9787 60.9281 91.904H58.3681C57.6854 91.904 57.3441 91.5627 57.3441 90.88C62.1227 85.9307 65.0241 82.5173 66.0481 80.64H59.9041C57.5147 80.64 54.7841 80.4693 51.7121 80.128C50.3467 80.128 47.2747 81.8347 42.4961 85.248C40.5334 86.6133 38.6561 87.296 36.8641 87.296C34.3894 86.1867 31.1467 83.6267 27.1361 79.616C27.1361 78.9333 27.6481 78.592 28.6721 78.592C32.3414 78.592 34.9014 79.4453 36.3521 81.152H38.9121C46.0801 78.08 51.5414 76.544 55.2961 76.544L57.8561 77.056ZM4.09606 81.664C7.42406 84.736 9.8134 86.272 11.2641 86.272H12.2881L13.8241 85.248H14.3361C15.3601 85.3333 15.8721 86.6987 15.8721 89.344C14.5921 90.368 13.0561 90.88 11.2641 90.88C5.80273 90.0267 3.07206 87.808 3.07206 84.224V82.688C3.24273 82.0053 3.58406 81.664 4.09606 81.664ZM161.586 5.632C162.354 5.632 163.037 5.80266 163.634 6.14399C164.231 5.80266 164.914 5.632 165.682 5.632H167.218C167.901 5.80266 168.242 6.14399 168.242 6.65599V7.16799C168.242 10.5813 166.706 12.288 163.634 12.288L151.858 18.432H151.346C151.346 17.4933 147.591 16.64 140.082 15.872L139.058 14.336C139.058 13.2267 142.983 12.032 150.834 10.752C155.869 8.87466 159.111 7.16799 160.562 5.632H161.586ZM166.706 17.408H167.73C168.669 18.3467 170.546 19.5413 173.362 20.992V21.504L160.562 32.256V32.768C171.485 31.0613 177.97 30.208 180.018 30.208C180.018 30.5493 180.189 30.72 180.53 30.72C180.701 30.0373 181.042 29.696 181.554 29.696H182.066L183.09 30.208C183.431 29.6107 183.602 29.0987 183.602 28.672H184.626C186.503 31.0613 187.869 32.256 188.722 32.256L189.234 33.28V34.816C189.234 35.2427 188.381 36.096 186.674 37.376L183.602 36.864L172.338 43.008L171.826 41.984L177.97 34.816V34.304C171.058 34.304 158.77 37.2053 141.106 43.008C139.997 43.008 138.119 43.1787 135.474 43.52L133.938 41.472C133.938 40.7893 137.351 39.5947 144.178 37.888C148.615 37.376 153.735 34.4747 159.538 29.184C163.634 23.3813 165.682 19.6267 165.682 17.92L166.706 17.408ZM151.346 20.992C153.479 20.992 155.357 22.1867 156.978 24.576V25.6C155.527 27.3067 153.991 28.16 152.37 28.16C150.322 26.9653 149.298 24.9173 149.298 22.016C150.237 21.3333 150.919 20.992 151.346 20.992ZM134.45 24.064C140.935 24.9173 144.178 27.3067 144.178 31.232V32.768C142.983 34.816 141.959 35.84 141.106 35.84C138.29 34.9013 135.389 31.488 132.402 25.6V25.088C132.573 24.4053 132.914 24.064 133.426 24.064H134.45ZM124.722 36.864C125.149 36.864 126.002 37.888 127.282 39.936V41.472C125.405 51.0293 123.186 55.808 120.626 55.808C120.626 56.832 120.285 57.344 119.602 57.344C118.834 57.344 118.151 56.1493 117.554 53.76C120.285 44.6293 122.674 38.9973 124.722 36.864ZM148.274 41.472H149.298C149.639 41.472 149.81 41.6427 149.81 41.984L150.834 41.472C153.565 42.1547 154.93 43.8613 154.93 46.592C156.125 45.9093 157.149 45.568 158.002 45.568H162.61C163.293 45.7387 163.634 46.08 163.634 46.592V47.104C163.634 48.5547 160.221 49.92 153.394 51.2C153.394 51.3707 152.541 53.76 150.834 58.368C153.309 59.392 154.845 59.904 155.442 59.904C159.453 58.88 162.866 57.1733 165.682 54.784L166.706 54.272C170.119 55.1253 171.826 56.1493 171.826 57.344V57.856C171.826 60.0747 169.607 63.6587 165.17 68.608V69.632C172.423 76.032 181.981 80.8107 193.842 83.968C195.207 83.968 197.085 85.504 199.474 88.576V89.6C199.474 90.2827 199.133 90.624 198.45 90.624H197.426C196.658 90.624 195.975 90.4533 195.378 90.112C193.757 90.7947 191.538 91.136 188.722 91.136H186.162C180.615 91.136 171.741 85.504 159.538 74.24C148.701 82.7733 141.703 87.04 138.546 87.04H137.01C136.327 87.04 135.986 86.6987 135.986 86.016C136.157 85.3333 139.57 83.2853 146.226 79.872L155.442 69.632V69.12C151.431 65.1947 148.871 62.976 147.762 62.464H147.25C135.73 76.7147 127.026 84.5653 121.138 86.016L120.626 84.992V84.48C120.797 83.6267 123.357 81.2373 128.306 77.312C129.33 76.288 133.597 70.656 141.106 60.416V59.904L140.594 57.344C142.813 56.32 144.178 55.1253 144.69 53.76H144.178L137.01 56.832L136.498 55.808C136.498 55.4667 139.911 53.4187 146.738 49.664C147.421 48.0427 147.762 46.336 147.762 44.544L147.25 41.984L148.274 41.472ZM158.002 61.952C158.002 61.6107 157.831 61.44 157.49 61.44V61.952C157.49 62.3787 158.343 63.232 160.05 64.512C160.05 64.0853 160.733 63.0613 162.098 61.44V60.928L158.002 61.952ZM269.668 7.29599C273.764 9.42933 275.812 10.6667 275.812 11.008V12.288C275.044 15.1893 274.66 16.8533 274.66 17.28V17.92C273.807 35.2427 272.356 44.7573 270.308 46.464C267.833 44.672 266.596 41.984 266.596 38.4V35.968L267.108 34.688H266.596C260.623 40.4907 256.057 43.392 252.9 43.392C249.999 43.392 247.695 41.728 245.988 38.4C247.012 35.4987 247.823 34.048 248.42 34.048C249.188 34.048 249.828 35.072 250.34 37.12C256.825 37.12 263.055 34.8587 269.028 30.336C270.308 24.2773 270.948 18.8587 270.948 14.08V11.648C269.241 11.648 268.388 11.008 268.388 9.72799V8.576C268.473 7.72266 268.9 7.29599 269.668 7.29599ZM293.348 19.712C294.799 21.3333 296.633 22.784 298.852 24.064C298.852 28.8427 296.591 31.9573 292.068 33.408C291.129 33.408 286.991 37.9733 279.652 47.104C278.713 47.9573 277.86 48.384 277.092 48.384V49.664C279.823 48.384 283.151 47.744 287.076 47.744C292.452 47.744 297.231 49.6213 301.412 53.376C301.412 54.2293 300.985 54.656 300.132 54.656L300.772 55.808V56.448C299.151 56.448 297.7 61.6533 296.42 72.064C292.921 82.4747 290.02 88.2773 287.716 89.472H285.796L277.092 82.56C266.767 85.12 261.177 86.4 260.324 86.4H259.684C259.087 86.4 258.447 85.76 257.764 84.48C269.028 79.5307 277.135 77.056 282.084 77.056H284.004L286.436 78.848H287.076C289.636 68.6933 291.513 60.6293 292.708 54.656C290.66 53.8027 288.996 53.376 287.716 53.376C285.839 53.376 275.471 56.2773 256.612 62.08H255.332L252.9 57.728V57.088C253.412 56.2347 258.148 54.784 267.108 52.736C279.823 40.7893 287.716 30.4213 290.788 21.632L293.348 19.712ZM277.092 64C278.799 64.6827 279.652 65.28 279.652 65.792V68.352C279.652 68.9493 274.447 70.6133 264.036 73.344C259.855 72.4907 257.764 71.424 257.764 70.144V69.504C257.764 68.992 258.617 68.3947 260.324 67.712C261.177 68.1387 261.775 68.352 262.116 68.352C270.82 65.4507 275.812 64 277.092 64ZM414.358 9.98399H414.87C415.638 9.98399 416.321 10.1547 416.918 10.496C417.515 10.1547 418.027 9.98399 418.454 9.98399C418.881 11.6053 420.929 13.1413 424.598 14.592C425.963 16.0427 426.646 16.896 426.646 17.152V17.664C426.646 18.176 425.963 18.8587 424.598 19.712C423.745 19.712 421.185 19.2 416.918 18.176H415.382C412.395 18.176 406.763 19.0293 398.486 20.736V20.224C396.438 20.992 391.83 21.8453 384.662 22.784V23.296C389.099 27.2213 391.318 30.6347 391.318 33.536C391.318 34.3893 390.977 35.4133 390.294 36.608L391.318 45.312L389.782 70.912L390.294 71.936C389.526 81.8347 388.502 86.784 387.222 86.784H386.71C383.979 84.48 382.614 82.0907 382.614 79.616C383.297 78.4213 384.321 67.4987 385.686 46.848C385.686 32.1707 384.662 24.832 382.614 24.832L381.59 23.296C371.435 25.6853 364.609 26.88 361.11 26.88C356.417 26.88 353.174 25.5147 351.382 22.784L352.406 22.272H353.43L354.966 23.296H360.598C367.851 21.248 376.555 19.2 386.71 17.152V17.664C404.203 15.0187 413.419 13.1413 414.358 12.032V9.98399ZM394.39 36.096C398.059 36.096 403.009 40.192 409.238 48.384V52.48C409.238 53.1627 408.726 53.504 407.702 53.504C403.691 51.0293 401.473 48.8107 401.046 46.848C400.363 46.6773 398.657 44.4587 395.926 40.192C394.902 40.192 393.878 39.3387 392.854 37.632V37.12C392.854 36.4373 393.366 36.096 394.39 36.096ZM450.632 84.736C454.813 82.688 456.904 80.6827 456.904 78.72C456.904 78.2933 456.776 77.824 456.52 77.312C456.52 76.9707 456.435 76.7147 456.264 76.544C455.923 76.2027 455.283 75.8187 454.344 75.392C453.149 74.7093 452.552 73.984 452.552 73.216C452.552 71.168 454.131 70.144 457.288 70.144C461.128 70.144 463.048 71.8933 463.048 75.392C463.048 80.0853 459.549 83.8827 452.552 86.784L450.632 84.736ZM591.61 4.09599C593.999 4.09599 595.194 5.80266 595.194 9.216C595.535 9.64266 595.706 10.6667 595.706 12.288C593.999 18.944 593.146 23.2107 593.146 25.088V30.208C593.146 30.976 592.975 31.6587 592.634 32.256C592.975 32.8533 593.146 33.3653 593.146 33.792L592.634 36.352L593.146 37.376C593.146 37.7173 592.975 37.888 592.634 37.888L593.658 47.104H593.146L593.658 48.128L593.146 50.688C594.767 65.8773 595.791 79.36 596.218 91.136L593.658 92.672C586.149 89.6 582.394 86.528 582.394 83.456L583.418 82.944H583.93C584.271 82.944 584.442 83.1147 584.442 83.456C587.173 82.7733 588.538 82.0907 588.538 81.408C589.306 46.5067 590.159 23.4667 591.098 12.288C590.501 9.81333 589.135 7.424 587.002 5.12C587.173 4.43733 587.514 4.09599 588.026 4.09599H591.61ZM543.482 15.872C547.919 18.176 550.138 19.8827 550.138 20.992C548.09 23.04 544.506 28.5013 539.386 37.376C529.658 51.0293 521.637 57.856 515.322 57.856H514.81V57.344C525.647 47.5307 534.351 37.12 540.922 26.112C542.629 23.1253 543.482 21.248 543.482 20.48V19.968C542.458 18.688 541.946 17.4933 541.946 16.384C542.543 16.0427 543.055 15.872 543.482 15.872ZM554.234 28.16C561.743 28.16 566.181 29.8667 567.546 33.28C567.887 33.28 568.058 33.4507 568.058 33.792V34.816C568.058 35.4987 567.717 35.84 567.034 35.84H566.01C564.303 35.84 562.426 35.6693 560.378 35.328C556.282 36.2667 553.21 37.632 551.162 39.424C550.479 39.424 550.138 39.0827 550.138 38.4V37.888C550.138 37.376 552.186 35.6693 556.282 32.768C556.282 32.5973 554.917 31.4027 552.186 29.184C552.357 28.5013 552.698 28.16 553.21 28.16H554.234ZM572.154 35.84C573.434 35.84 574.799 36.5227 576.25 37.888C576.25 36.864 576.591 36.352 577.274 36.352H578.298V36.864C575.482 49.152 573.775 55.296 573.178 55.296H572.154C571.045 55.04 570.362 53.504 570.106 50.688H569.082C561.317 68.4373 553.807 77.312 546.554 77.312H545.53C541.434 76.3733 539.386 74.3253 539.386 71.168V70.656C540.666 67.072 541.519 63.3173 541.946 59.392C541.605 58.7947 541.434 58.112 541.434 57.344L542.97 56.32C545.359 56.6613 546.554 57.6853 546.554 59.392C547.322 59.392 548.687 55.4667 550.65 47.616V47.104C546.127 50.2613 543.055 52.6507 541.434 54.272H540.41C538.703 52.8213 537.85 51.2853 537.85 49.664C537.85 49.152 538.362 48.64 539.386 48.128C539.983 48.4693 540.495 48.64 540.922 48.64C545.445 46.4213 549.37 43.52 552.698 39.936C557.135 40.0213 559.354 40.5333 559.354 41.472V43.52C557.733 45.2267 554.49 52.5653 549.626 65.536C547.237 67.2427 545.701 68.096 545.018 68.096V69.632C545.701 69.632 546.042 69.8027 546.042 70.144C554.575 67.2427 560.378 62.8053 563.45 56.832C568.57 50.0053 571.13 44.3733 571.13 39.936C570.447 38.7413 570.106 37.7173 570.106 36.864C570.277 36.1813 570.618 35.84 571.13 35.84H572.154ZM671.532 4.35199C675.287 4.35199 678.017 5.71732 679.724 8.44799V9.98399C679.041 12.544 678.7 13.9093 678.7 14.08L679.724 16.128C679.383 17.8347 679.212 19.3707 679.212 20.736V22.272C680.321 22.272 681.516 22.4427 682.796 22.784L685.356 22.272C686.721 22.6133 687.745 23.4667 688.428 24.832V25.856C688.001 26.368 684.759 28.0747 678.7 30.976C678.7 33.3653 678.017 35.4133 676.652 37.12V39.168C682.028 37.12 687.66 36.096 693.548 36.096C696.961 36.9493 698.668 37.9733 698.668 39.168V41.216C698.668 41.728 698.156 42.24 697.132 42.752H689.964C688.684 41.728 687.148 41.216 685.356 41.216C677.847 43.0933 674.092 44.9707 674.092 46.848L670.508 46.336H669.484C659.841 49.5787 653.015 52.48 649.004 55.04H646.956C646.444 55.04 645.761 54.3573 644.908 52.992V51.456C644.908 50.5173 653.271 47.104 669.996 41.216C671.105 39.424 671.959 36.864 672.556 33.536L667.436 34.56L666.412 34.048C662.145 37.8027 659.415 39.68 658.22 39.68L657.196 38.144V37.12C657.196 32.512 657.879 27.904 659.244 23.296C658.561 22.1013 658.22 21.0773 658.22 20.224V19.2C658.391 18.5173 658.732 18.176 659.244 18.176H659.756C662.999 18.176 665.388 20.224 666.924 24.32V29.44C671.703 28.5013 674.092 26.9653 674.092 24.832C674.433 20.8213 674.604 17.2373 674.604 14.08C674.604 11.776 673.239 9.38666 670.508 6.91199V5.88799L671.532 4.35199ZM638.252 17.664C641.665 17.664 644.055 18.8587 645.42 21.248V21.76C645.42 23.552 644.737 24.7467 643.372 25.344H642.86C641.239 22.8693 639.703 21.3333 638.252 20.736C637.74 20.736 637.228 20.224 636.716 19.2C636.716 18.688 637.228 18.176 638.252 17.664ZM639.788 35.072C641.921 35.072 643.287 36.096 643.884 38.144C642.86 42.3253 641.324 46.9333 639.276 51.968C639.276 55.3813 641.836 62.208 646.956 72.448C646.956 74.8373 647.639 76.032 649.004 76.032C655.489 76.288 658.732 76.8 658.732 77.568C659.073 77.568 659.244 77.3973 659.244 77.056C668.545 79.4453 680.151 81.664 694.06 83.712C697.132 83.3707 699.692 83.2 701.74 83.2L704.3 83.712C706.092 83.1147 709.676 82.6027 715.052 82.176C716.417 82.688 717.1 83.2 717.1 83.712V84.736C715.905 86.4427 710.444 88.4907 700.716 90.88C700.716 91.648 699.863 92.16 698.156 92.416C694.145 92.416 685.1 90.1973 671.02 85.76C662.231 82.688 655.063 81.152 649.516 81.152H645.932C640.3 82.0907 634.156 82.7733 627.5 83.2C626.135 82.688 625.111 81.8347 624.428 80.64V78.08C636.716 77.312 642.86 76.4587 642.86 75.52L643.372 73.472C638.252 64.512 635.692 59.0507 635.692 57.088C635.692 53.76 636.716 47.9573 638.764 39.68C636.375 38.4 635.18 37.5467 635.18 37.12V36.608C635.18 36.096 635.692 35.584 636.716 35.072H639.788ZM689.964 47.872C691.756 47.872 693.121 48.7253 694.06 50.432V52.992C694.06 53.3333 691.5 54.8693 686.38 57.6L680.236 63.744C682.284 63.744 683.308 64.0853 683.308 64.768V66.304C682.967 67.4133 679.212 69.632 672.044 72.96C672.044 73.472 671.361 74.1547 669.996 75.008C667.777 75.008 666.071 74.1547 664.876 72.448V71.424C665.559 70.4853 665.9 69.8027 665.9 69.376L659.756 55.04L661.292 54.016H662.316L665.388 54.528C670.593 52.6507 678.615 50.432 689.452 47.872H689.964ZM667.948 58.112C668.716 59.392 669.569 62.1227 670.508 66.304C673.068 66.304 678.188 61.696 685.868 52.48H685.356C676.14 55.2107 670.337 57.088 667.948 58.112ZM777.822 -7.62939e-06C780.553 2.73066 781.918 4.43733 781.918 5.12L779.87 18.944C780.211 18.944 780.382 19.1147 780.382 19.456L782.942 18.944H783.454C785.502 20.0533 786.526 21.5893 786.526 23.552L778.846 28.16L779.87 32.256C779.529 32.8533 779.358 33.536 779.358 34.304H780.894C783.113 32.256 784.99 31.232 786.526 31.232H787.55L789.086 32.256H789.598C790.366 32.256 791.049 32.0853 791.646 31.744C793.694 31.744 794.718 32.9387 794.718 35.328C794.718 38.0587 791.646 39.424 785.502 39.424C783.71 39.424 782.345 40.448 781.406 42.496C781.747 43.0933 781.918 43.6053 781.918 44.032C781.235 45.2267 780.894 46.2507 780.894 47.104C787.038 50.944 793.523 55.7227 800.35 61.44C805.726 63.744 813.406 66.304 823.39 69.12L823.902 70.144V71.168C823.134 72.8747 820.574 73.728 816.222 73.728H809.054C803.422 73.728 794.377 67.072 781.918 53.76C781.491 53.76 780.809 53.4187 779.87 52.736H778.846L779.358 53.76V56.832C779.358 57.6 779.187 58.2827 778.846 58.88C779.102 59.136 779.443 61.696 779.87 66.56C779.87 66.9013 779.699 67.072 779.358 67.072L779.87 69.632V70.656C779.87 76.7147 780.041 83.5413 780.382 91.136C779.614 91.136 778.931 92.8427 778.334 96.256L777.31 96.768C771.166 94.464 768.094 91.392 768.094 87.552C767.667 87.552 766.814 85.1627 765.534 80.384C764.595 80.384 763.742 77.6533 762.974 72.192C762.974 71.68 763.486 71.168 764.51 70.656C765.193 70.656 766.046 72.5333 767.07 76.288C770.398 80.7253 772.958 82.944 774.75 82.944V79.872C774.75 79.5307 774.921 79.36 775.262 79.36L774.75 78.336C774.75 77.6533 774.921 77.312 775.262 77.312C775.262 76.544 775.091 75.8613 774.75 75.264C775.091 71.0827 775.262 66.9867 775.262 62.976V52.736C763.998 64 757.001 69.632 754.27 69.632C753.758 69.632 752.051 69.9733 749.15 70.656L748.126 69.12V68.096C755.635 64 760.926 59.7333 763.998 55.296C768.094 50.176 770.142 47.104 770.142 46.08C768.094 47.2747 763.145 49.152 755.294 51.712C752.563 50.5173 751.198 49.664 751.198 49.152C751.198 48.0427 757.342 44.8 769.63 39.424L775.774 35.84V30.72L772.19 33.792H771.678C770.995 33.792 770.654 33.4507 770.654 32.768V32.256L773.214 29.184V28.672H769.63C765.875 27.7333 763.998 26.7093 763.998 25.6C763.998 24.6613 766.729 23.808 772.19 23.04C774.921 22.1013 776.286 20.736 776.286 18.944C776.627 17.8347 776.798 15.9573 776.798 13.312V7.67999L777.31 6.65599C776.883 6.65599 776.03 5.80266 774.75 4.09599V1.536C774.75 1.02399 775.262 0.511991 776.286 -7.62939e-06H777.822ZM895.376 0.639992C896.315 1.57866 898.533 2.21866 902.032 2.55999L902.544 3.45599C902.544 3.96799 901.349 5.37599 898.96 7.67999V12.416L899.472 13.44L900.496 12.928H904.592C905.104 12.928 905.787 13.568 906.64 14.848V17.152C906.64 18.176 904.421 19.1147 899.984 19.968C899.984 20.736 899.472 21.7173 898.448 22.912V23.296C898.448 25.5147 898.619 28.032 898.96 30.848C897.936 32.9813 897.424 34.56 897.424 35.584C900.411 33.792 904.507 29.568 909.712 22.912H910.736C912.357 24.704 914.064 25.6427 915.856 25.728L917.392 27.648V28.544C916.539 29.824 910.395 33.28 898.96 38.912C897.936 39.68 897.424 40.6187 897.424 41.728V42.752C903.312 42.752 909.115 41.1733 914.832 38.016H915.856C918.928 38.9547 920.635 39.8933 920.976 40.832V41.728C920.379 43.008 919.355 43.648 917.904 43.648C917.136 43.648 915.429 43.4773 912.784 43.136L900.496 46.464C900.496 47.6587 900.155 48.5973 899.472 49.28V49.792C900.24 49.792 902.971 52.0107 907.664 56.448C918.843 64.2987 927.035 68.224 932.24 68.224C941.115 69.4187 945.552 70.6987 945.552 72.064C939.835 75.2213 935.227 76.8 931.728 76.8H929.168C924.389 76.8 919.099 74.112 913.296 68.736C910.48 67.7973 905.019 63.0613 896.912 54.528C897.339 57.2587 897.68 58.8373 897.936 59.264L897.424 61.568L897.936 67.712L897.424 69.632C897.765 70.7413 897.936 71.8507 897.936 72.96L897.424 76.288C897.424 76.6293 897.595 77.0987 897.936 77.696C897.936 85.4613 896.059 91.6053 892.304 96.128H891.792C889.061 94.336 887.696 93.2267 887.696 92.8L888.208 91.904C886.245 88.576 884.88 86.528 884.112 85.76C884.624 85.76 885.136 85.2907 885.648 84.352C883.941 83.4133 883.088 82.304 883.088 81.024L884.112 80.512C886.757 83.072 888.805 84.352 890.256 84.352C890.939 80.9387 891.28 77.7813 891.28 74.88V62.976C891.28 62.208 891.451 61.6107 891.792 61.184C891.451 60.5867 891.28 59.9467 891.28 59.264V57.856L891.792 56.832L890.768 56.448C876.005 66.5173 867.131 71.552 864.144 71.552H863.12V70.144C869.264 66.048 876.773 59.4347 885.648 50.304C886.843 50.304 887.867 49.4933 888.72 47.872V47.488C881.979 49.28 872.763 52.736 861.072 57.856C859.707 57.856 858.341 56.9173 856.976 55.04L886.672 44.544C890.427 44.288 892.304 43.6907 892.304 42.752L890.256 40.832C892.048 40.832 893.072 36.736 893.328 28.544C893.328 28.2027 893.157 28.032 892.816 28.032L893.328 25.728V22.912H892.816L890.256 24.32H887.184C886.245 23.2107 883.685 21.4613 879.504 19.072V18.56C879.504 18.1333 880.016 17.664 881.04 17.152H886.672C890.085 17.152 892.645 16.0427 894.352 13.824C894.352 8.10666 893.157 4.47999 890.768 2.94399V2.04799C890.768 1.62132 891.28 1.15199 892.304 0.639992H895.376ZM891.792 30.464V30.848C883.515 37.8453 878.053 41.344 875.408 41.344H874.896C873.701 40.576 872.507 39.296 871.312 37.504V36.992C871.568 35.1147 872.08 34.176 872.848 34.176L875.408 35.584H876.432C878.395 35.584 883.344 33.536 891.28 29.44L891.792 30.464Z" fill="white"/>
</svg>
