<svg width="668" height="185" viewBox="0 0 668 185" fill="none" xmlns="http://www.w3.org/2000/svg">
<path d="M71.1334 1.45953C72.1146 0.188705 73.8524 -0.431931 75.3478 0.336474C78.581 2.06834 80.5139 5.7094 80.8922 9.27953C81.4182 14.3451 78.7406 18.9201 77.5999 23.7078C84.5391 25.0791 91.6203 25.6938 98.5005 27.3902C112.751 30.4934 126.849 35.3403 139.055 43.4676C147.3 49.0652 155.321 56.3 158.259 66.1474C159.518 71.8868 159.394 78.1996 156.74 83.5429C153.595 90.2162 148.4 95.6187 142.897 100.418C131.548 110.023 118.189 116.844 104.825 123.169C87.264 131.125 69.0646 137.603 50.6229 143.189C41.5794 145.973 32.4117 148.355 23.1968 150.495C16.2102 152.262 8.30745 151.86 2.11292 147.929C-0.0799912 146.718 -0.71836 143.526 0.924845 141.617C3.0882 139.063 6.28004 137.467 7.94098 134.459C10.1753 130.504 11.7948 126.237 13.7454 122.135C25.7148 94.8326 37.2231 67.3178 49.9905 40.3704C50.4101 39.4365 50.7352 38.4671 51.0603 37.4977C41.0711 37.084 31.0404 36.8357 21.063 37.6337C15.3649 38.0593 9.73786 39.5192 3.99256 39.2178C2.8163 39.3005 1.79373 38.3784 1.65779 37.2258C1.30905 34.6014 2.36117 32.042 3.7443 29.8728C5.31658 27.4021 7.33807 24.955 10.2048 23.9856C14.431 22.4606 18.9646 22.2478 23.3505 21.4026C35.1425 20.0845 47.0173 21.0184 58.833 21.308C63.0474 14.7825 65.9083 7.32305 71.1334 1.45953ZM70.767 39.4187C57.6982 66.5612 44.1565 93.479 31.7142 120.917C30.4198 123.801 28.948 126.627 28.1027 129.689C31.6374 129.393 35.0716 128.441 38.4999 127.561C59.9147 122.182 80.9927 115.042 100.563 104.721C114.436 97.1969 128.043 88.4903 138.458 76.4559C141.147 73.1163 144.002 69.2683 143.612 64.7229C143.665 60.9223 140.721 58.026 137.813 56.0163C131.382 51.6659 123.923 49.1479 116.487 47.1205C105.15 44.2479 93.63 42.185 82.0566 40.5832C78.3269 39.9507 74.5735 39.2119 70.767 39.4187Z" fill="white"/>
<path d="M332.125 2.40525C335.169 1.27038 338.597 1.78462 341.665 2.61213C346.169 4.14894 351.264 6.71423 352.393 11.8093C354.072 20.4569 351.489 29.193 348.557 37.279C344.254 48.545 339.194 59.5096 334.111 70.4387C329.601 80.6644 324.802 90.7541 320.298 100.98C315.811 111.619 311 122.271 308.73 133.655C308.411 136.344 307.773 139.365 309.049 141.883C310.356 144.158 313.252 142.952 314.984 141.889C322.709 137.036 328.992 130.315 335.276 123.79C349.763 107.736 361.449 89.3769 371.657 70.3677C374.186 65.5918 376.042 60.4967 378.377 55.6262C379.211 53.6756 381.025 52.0797 383.242 52.1152C391.428 52.5762 398.249 60.1538 398.243 68.293C397.221 86.5693 389.602 104.042 390.666 122.507C390.749 125.74 391.765 129.452 394.827 131.078C398.025 132.1 401.14 130.114 403.705 128.418C410.449 123.583 415.651 116.974 420.468 110.301C432.426 93.2012 440.931 73.7073 445.441 53.3387C446.458 49.7922 446.588 46.0861 447.291 42.4805C448.556 35.1984 448.533 27.7744 448.349 20.4096C448.296 17.9329 448.012 15.409 448.609 12.9738C448.988 11.7089 450.14 10.8222 451.464 10.7809C456.642 10.2607 461.483 13.1511 465.018 16.6858C468.127 20.0608 468.34 24.9373 468.251 29.2758C468.535 38.0592 466.667 46.7186 464.527 55.1829C460.703 68.5886 454.828 81.3382 447.912 93.414C442.917 102.162 437.148 110.449 430.812 118.275C423.908 126.662 416.307 134.624 407.287 140.76C403.545 143.136 399.532 145.411 395.069 145.979C389.897 146.428 384.359 146.156 379.831 143.331C374.222 140.186 371.668 133.737 370.38 127.756C368.465 119.859 369.009 111.678 368.944 103.628C362.838 112.216 356.702 120.822 349.538 128.583C345.951 132.283 342.67 136.279 338.923 139.832C331.782 146.594 324.24 153.184 315.315 157.493C310.763 159.733 305.491 160.224 300.538 159.343C296.613 158.557 293.48 155.46 292.026 151.819C290.46 147.817 290.614 143.449 290.667 139.229C290.844 128.962 293.805 119.031 296.731 109.279C300.402 97.5811 304.888 86.1673 308.99 74.6176C314.014 61.0523 318.595 47.3333 323.141 33.6025C324.837 28.2237 326.551 22.8507 327.976 17.3951C328.827 13.7363 329.436 10.0302 330.299 6.37732C330.653 4.96463 331.168 3.53422 332.125 2.40525Z" fill="white"/>
<path d="M250.284 13.3284C254.942 9.66962 260.669 6.34775 266.828 7.3053C270.245 7.64813 272.84 10.6745 273.401 13.9491C274.081 18.2403 273.697 22.697 272.42 26.8464C269.914 34.5541 266.421 41.9249 262.159 48.811C254.357 61.6729 245.142 73.8374 233.757 83.7439C231.334 85.925 228.574 87.6687 225.967 89.6074C224.383 90.7423 223.691 92.6337 222.982 94.3715C220.559 100.85 219.034 107.629 217.899 114.445C217.42 118.505 216.935 122.832 218.46 126.733C219.051 128.56 221.073 129.771 222.964 129.393C226.138 128.808 228.993 127.182 231.653 125.421C237.428 121.626 242.228 116.62 247.341 112.039C248.594 110.573 252.465 110.384 251.357 112.601C248.946 116.047 246.655 119.167 243.918 122.253C238.055 128.707 231.517 134.902 223.437 138.448C219.424 140.21 214.648 141.096 210.516 139.223C206.526 137.55 203.742 133.82 202.442 129.783C201.467 126.621 201.029 123.329 200.509 120.072C195.745 124.481 190.922 129.015 184.916 131.692C177.203 135.381 167.681 136.196 159.961 132.077C154.647 129.411 151.367 123.748 150.622 117.967C149.262 106.122 155.037 94.673 162.976 86.2442C167.781 81.0722 173.993 76.7809 181.122 75.8293C185.88 75.2855 191.336 76.3613 194.474 80.2624C196.431 82.5203 196.478 85.6708 196.265 88.4903C195.94 92.6278 193.41 96.1684 190.674 99.1238C183.882 106.441 175.028 112.139 165.127 114.007C164.731 118.086 166.593 122.513 170.216 124.588C173.704 126.455 177.883 126.083 181.565 125.06C188.28 123.074 194.344 119.215 199.368 114.391C202.123 111.59 201.484 107.304 202.271 103.752C204.99 90.2812 209.984 77.3957 215.582 64.8825C220.748 54.0775 226.416 43.4854 233.072 33.5197C237.777 26.0012 243.481 19.0442 250.284 13.3284ZM257.596 26.5745C249.35 37.9765 242.08 50.0523 235.401 62.4295C233.137 66.8744 230.577 71.2011 228.846 75.9061C233.409 72.135 236.861 67.2645 240.454 62.6127C248.978 50.868 257.188 38.7567 263.146 25.4751C264.068 23.6014 264.582 21.5563 264.718 19.4697C261.438 20.7524 259.594 23.8851 257.596 26.5745ZM181.033 87.0539C177.457 88.8213 174.608 91.7648 172.214 94.9035C169.808 98.2135 167.562 101.754 166.546 105.756C170.689 104.739 174.2 102.168 177.457 99.5198C180.336 97.0255 183.173 94.2888 184.851 90.8132C185.531 89.5128 185.378 88.0233 185.265 86.6224C183.841 86.4924 182.339 86.3505 181.033 87.0539Z" fill="white"/>
<path d="M626.217 65.8755C631.578 62.1517 637.738 58.5521 644.523 59.155C648.726 59.1904 652.036 62.5123 653.738 66.0942C654.778 68.3758 655.913 71.0889 655.098 73.5832C653.295 75.457 650.54 76.2904 647.999 76.4204C645.079 76.7869 643.69 72.3538 640.74 73.5241C635.645 75.6698 631.72 79.76 627.902 83.6257C622.878 89.3828 617.984 95.3823 614.603 102.286C613.089 105.454 611.222 108.753 611.6 112.394C613.87 112.488 615.986 111.519 617.594 109.952C624.474 103.793 629.669 96.0502 636.254 89.5956C639.907 85.99 643.637 82.1185 648.507 80.2093C653.307 78.436 658.715 81.6279 660.654 86.0905C661.286 87.4796 660.571 88.8981 659.554 89.8616C655.228 94.3302 651.793 99.5435 648.412 104.733C645.374 109.379 642.768 114.291 640.321 119.274C639.274 121.384 638.364 123.577 637.838 125.882C644.505 124.304 650.865 121.425 656.664 117.778C659.69 115.964 661.99 113.221 664.821 111.152C666.121 109.805 668.87 111.625 667.729 113.292C661.357 122.353 651.504 128.04 641.733 132.78C638.908 134.204 635.474 135.103 633.736 137.987C631.537 141.481 630.124 145.388 628.263 149.058C624.633 156.34 620.307 163.309 615.17 169.628C610.749 174.629 606.251 179.907 600.092 182.809C597.225 184.346 593.885 184.718 590.693 184.364C587.247 184.068 584.398 181 583.955 177.643C583.429 173.346 583.896 168.86 585.74 164.911C589.588 156.039 596.699 149.206 603.774 142.852C609.253 138.33 614.987 134.057 621.229 130.634C623.717 129.434 624.462 126.585 625.502 124.263C627.352 119.51 629.604 114.929 631.537 110.213C625.437 115.172 619.225 120.598 611.387 122.477C608.337 123.459 604.814 123.092 602.261 121.094C600.955 119.983 600.021 118.529 599.004 117.17C594.134 122.418 588.997 127.519 582.95 131.403C578.57 134.216 573.162 135.86 567.99 134.606C563.651 133.087 561.021 128.317 561.37 123.837C561.689 117.554 564.792 111.974 566.79 106.152C563.232 107.168 560.554 109.834 557.699 112.039C550.47 117.79 543.927 124.345 536.716 130.114C534.446 131.752 532.236 134.193 529.233 134.163C524.894 133.59 521.88 129.89 520.242 126.089C515.585 128.548 511.205 132.49 505.572 132.083C501.523 132.402 497.852 129.488 496.664 125.722C494.926 121.644 496.038 117.205 496.664 113.026C492.16 116.395 488.389 120.616 483.991 124.109C478.424 128.566 472.548 133.129 465.503 134.902C461.974 135.86 457.688 135.132 455.377 132.1C452.463 128.105 452.558 122.826 453.415 118.174C455.472 108.77 460.23 100.158 465.987 92.5215C471.957 84.932 479.233 78.1287 487.999 73.8965C493.319 71.3549 499.531 69.9777 505.341 71.3844C509.142 72.703 514.337 76.9405 512.032 80.4398C511.58 81.1259 509.219 81.8406 507.788 82.4199C494.377 86.6698 482.543 95.3823 474.055 106.554C471.407 110.473 468.606 114.521 467.595 119.227C467.258 120.172 467.678 121.112 468.34 121.81C469.717 122.235 471.088 121.473 472.294 120.876C476.408 118.6 479.818 115.314 483.353 112.264C487.077 108.699 491.108 105.448 494.554 101.6C496.877 98.982 499.241 96.4049 501.482 93.7214C502.481 92.5924 503.456 91.3925 504.756 90.5886C507.978 89.4419 511.495 90.831 513.865 93.1185C515.455 94.5962 517.476 96.73 516.448 99.0884C513.226 105.478 509.112 111.808 508.504 119.114C508.149 121.254 510.253 123.837 512.488 122.862C516.743 121.567 520.319 118.76 523.594 115.846C525.592 114.102 526.857 111.726 527.761 109.273C531.361 100.318 534.99 91.363 538.152 82.2367C539.163 79.63 539.509 76.2495 541.282 74.4762C545.05 71.5947 551.239 74.9073 552.474 79.8605C553.704 86.5043 550.872 92.9766 547.876 98.7456C545.872 102.859 543.377 106.707 541.309 110.792C543.921 109.249 546.061 107.08 548.396 105.171C554.708 99.9218 561.435 95.1104 568.705 91.2684C572.293 89.5188 576.33 87.5978 580.397 88.7681C583.204 90.1808 585.433 92.7934 586.461 95.7606C587.324 98.1308 586.343 100.625 585.486 102.848C582.956 108.628 579.953 114.22 578.056 120.261C577.631 121.544 577.772 122.909 577.897 124.233C579.209 124.44 580.533 124.221 581.727 123.636C585.77 121.81 589.352 119.156 592.945 116.596C594.589 115.302 596.403 114.084 597.55 112.293C598.064 110.715 597.97 109.024 598.188 107.399C599.122 100.141 602.007 93.2426 605.937 87.1072C611.05 78.6547 618.102 71.4731 626.217 65.8755ZM609.596 149.248C604.43 154.981 599.205 160.768 595.381 167.512C594.601 168.842 594.234 170.349 593.938 171.85C597.154 170.645 599.258 167.819 601.451 165.343C606.221 159.609 610.672 153.616 614.916 147.486C616.447 145.305 618.161 143.142 618.746 140.482C615.306 142.976 612.528 146.209 609.596 149.248Z" fill="white"/>
</svg>
