<svg width="499" height="513" viewBox="0 0 499 513" fill="none" xmlns="http://www.w3.org/2000/svg">
<path d="M0 197.693L242.999 0.817993L224.735 169.215L0 197.693Z" fill="#363636"/>
<path d="M224.735 169.215L242.999 0.817993L433.374 189.336L224.735 169.215Z" fill="#545454"/>
<path d="M0 197.693L224.735 169.215L102.462 512.818L0 197.693Z" fill="#313131"/>
<path d="M3.71463 367.638L0 197.693L102.462 512.818L3.71463 367.638Z" fill="#262626"/>
<path d="M102.462 512.818L224.735 169.215L444.208 495.793L102.462 512.818Z" fill="#444444"/>
<path d="M444.208 495.793L224.735 169.215L433.374 189.336L438.791 342.564L444.208 495.793Z" fill="#4D4D4D"/>
<path d="M433.374 189.336L498.38 374.448L444.208 495.793L438.791 342.564L433.374 189.336Z" fill="#444444"/>
</svg>
