<svg width="496" height="512" viewBox="0 0 496 512" fill="none" xmlns="http://www.w3.org/2000/svg">
<path d="M360.052 59.4581L135.432 224.619L44.5935 0L360.052 59.4581Z" fill="#545454"/>
<path d="M44.5935 0L135.432 224.619L0 313.806L11.5613 136.258L44.5935 0Z" fill="#363636"/>
<path d="M360.052 59.4581L351.794 407.948L135.432 224.619L360.052 59.4581Z" fill="#4D4D4D"/>
<path d="M360.052 59.4581L495.484 259.303L351.794 407.948L360.052 59.4581Z" fill="#444444"/>
<path d="M135.432 224.619L351.794 407.948L125.523 512L135.432 224.619Z" fill="#444444"/>
<path d="M0 313.806L135.432 224.619L125.523 512L0 313.806Z" fill="#313131"/>
<path d="M351.794 407.948L303.897 512H125.523L351.794 407.948Z" fill="#2E2E2E"/>
<path d="M351.794 407.948L495.484 259.303L303.897 512L351.794 407.948Z" fill="#363636"/>
</svg>
