<?xml version="1.0" encoding="UTF-8" standalone="no"?>
<!DOCTYPE svg PUBLIC "-//W3C//DTD SVG 1.1//EN" "http://www.w3.org/Graphics/SVG/1.1/DTD/svg11.dtd">
<svg xmlns="http://www.w3.org/2000/svg" version="1.1" viewBox="0 0 920 920" width="920.0pt" height="920.0pt">
<path d="M 0.00 0.00 L 920.00 0.00 L 920.00 920.00 L 0.00 920.00 L 0.00 0.00 Z" fill="#3cbd51" />
<path d="M 466.99 158.31 C 476.87 158.64 486.87 161.13 496.51 163.23 C 512.18 166.88 527.34 172.83 541.54 180.36 C 547.61 183.81 553.49 187.61 559.26 191.53 C 588.42 211.67 611.33 240.64 624.39 273.57 C 631.12 289.54 634.81 306.81 636.62 323.99 C 637.77 334.64 637.99 345.34 636.74 355.99 C 635.11 376.88 630.20 397.40 621.49 416.49 C 614.96 430.74 606.85 444.67 596.66 456.63 C 584.12 472.54 568.78 485.84 551.75 496.74 C 540.17 503.90 527.82 510.50 514.87 514.79 C 502.45 519.01 490.09 522.41 476.98 523.61 C 465.58 525.06 454.48 526.04 442.97 525.19 C 432.09 524.12 420.65 523.15 410.03 520.57 C 399.65 517.92 389.38 514.64 379.50 510.49 C 362.03 502.66 345.18 492.98 330.96 480.04 C 324.12 474.35 318.08 468.45 312.46 461.54 C 301.81 449.62 293.05 436.24 285.98 421.93 C 276.09 401.10 269.40 379.14 268.26 356.00 C 266.61 338.81 268.07 321.14 271.21 304.19 C 275.99 282.11 284.59 260.92 297.06 242.06 C 305.61 228.97 315.73 216.32 327.66 206.16 C 334.96 199.53 342.70 193.32 350.97 187.92 C 361.45 180.74 373.07 175.42 384.78 170.49 C 411.16 160.92 438.87 155.56 466.99 158.31 Z" fill="#ffffff" />
<path d="M 454.49 295.70 C 467.92 293.16 482.48 293.92 494.79 300.31 C 504.60 304.86 512.76 312.21 518.93 321.03 C 526.50 332.26 529.97 346.56 528.41 360.00 C 527.13 373.25 520.87 386.05 511.39 395.38 C 501.90 404.48 489.18 410.98 476.01 412.24 C 465.93 412.89 456.33 412.93 446.79 409.18 C 424.51 401.34 407.47 378.91 407.87 355.00 C 407.48 343.74 410.10 332.69 416.15 323.13 C 424.48 309.25 438.83 299.43 454.49 295.70 Z" fill="#000000" />
<path d="M 733.37 573.27 C 730.18 577.79 726.20 581.42 722.61 585.60 C 718.62 590.27 714.39 594.73 710.40 599.41 C 701.67 608.67 693.56 618.56 684.60 627.60 C 681.29 631.29 678.10 635.08 674.60 638.60 C 667.36 646.36 660.37 654.34 652.78 661.78 C 632.23 684.41 609.85 705.59 588.33 727.33 C 576.60 738.28 564.79 749.20 552.49 759.50 C 546.45 764.94 539.99 769.87 532.99 774.01 C 530.08 775.71 527.03 776.57 523.94 778.03 C 525.36 777.17 526.77 776.26 527.91 775.04 C 527.71 774.10 527.15 773.35 526.23 772.81 C 512.36 763.55 498.25 754.69 483.60 746.70 C 463.34 734.94 442.26 724.72 420.66 715.66 C 402.68 708.48 384.84 702.23 365.57 699.54 C 352.92 697.36 339.53 697.59 327.37 701.98 C 323.55 703.54 319.89 705.01 316.89 707.92 C 319.08 709.59 321.12 711.36 323.10 713.28 C 316.75 709.17 310.48 705.14 304.56 700.41 C 281.32 683.15 258.41 663.23 240.89 640.07 C 234.57 631.22 228.91 622.23 224.92 612.06 C 224.38 610.61 224.26 609.11 224.05 607.57 C 235.05 607.43 246.04 606.40 257.00 605.47 C 273.37 604.51 289.74 603.26 306.13 602.18 C 312.81 617.22 319.42 632.33 325.82 647.50 C 326.27 647.46 326.73 647.42 327.19 647.38 C 330.27 637.86 333.46 628.38 336.87 618.97 C 339.11 612.75 340.86 606.28 343.53 600.24 C 345.82 598.64 349.30 599.35 352.00 599.07 C 362.41 598.32 372.81 597.70 383.20 596.78 C 383.58 596.98 383.95 597.18 384.33 597.39 C 388.88 607.92 393.66 618.34 398.10 628.91 C 400.35 633.34 402.09 637.89 403.76 642.56 C 404.26 642.41 404.75 642.26 405.24 642.11 C 409.95 626.34 415.92 611.03 421.00 595.38 C 422.28 593.77 425.11 594.10 426.98 593.82 C 434.94 593.44 442.88 592.80 450.83 592.28 C 457.89 592.06 464.50 590.81 471.57 591.49 C 477.25 603.34 482.03 615.58 487.59 627.49 C 489.07 630.46 489.81 633.71 491.24 636.69 C 493.22 636.89 492.91 635.67 493.60 634.25 C 498.48 619.03 504.18 604.01 508.81 588.71 C 505.64 588.94 502.49 589.26 499.35 589.75 C 501.47 588.61 503.68 588.70 506.01 588.54 C 514.34 588.05 522.66 587.38 530.97 586.68 C 540.71 585.86 550.60 585.99 560.27 584.63 C 561.07 584.52 561.86 584.41 562.66 584.29 C 565.22 588.26 566.93 592.76 568.94 597.02 C 573.26 607.71 578.44 618.01 582.64 628.74 C 583.17 628.63 583.71 628.52 584.24 628.41 C 588.99 612.98 594.74 597.85 599.64 582.47 C 609.99 580.96 620.57 580.90 631.00 580.13 C 645.00 578.95 659.03 578.73 673.01 577.41 C 681.66 576.60 690.33 575.73 699.00 575.24 C 710.47 574.86 721.91 573.69 733.37 573.27 Z" fill="#000000" />
<path d="M 600.77 581.14 L 599.64 582.47 C 594.74 597.85 588.99 612.98 584.24 628.41 C 583.71 628.52 583.17 628.63 582.64 628.74 C 578.44 618.01 573.26 607.71 568.94 597.02 C 566.93 592.76 565.22 588.26 562.66 584.29 C 561.86 584.41 561.07 584.52 560.27 584.63 C 573.50 582.06 587.32 581.78 600.77 581.14 Z" fill="#ffffff" />
<path d="M 508.81 588.71 C 504.18 604.01 498.48 619.03 493.60 634.25 C 492.91 635.67 493.22 636.89 491.24 636.69 C 489.81 633.71 489.07 630.46 487.59 627.49 C 482.03 615.58 477.25 603.34 471.57 591.49 C 476.46 591.98 481.16 591.21 485.99 590.65 C 490.57 590.12 494.87 590.73 499.35 589.75 C 502.49 589.26 505.64 588.94 508.81 588.71 Z" fill="#ffffff" />
<path d="M 402.00 595.48 C 407.80 595.35 414.39 594.14 420.17 594.87 L 421.00 595.38 C 415.92 611.03 409.95 626.34 405.24 642.11 C 404.75 642.26 404.26 642.41 403.76 642.56 C 402.09 637.89 400.35 633.34 398.10 628.91 C 393.66 618.34 388.88 607.92 384.33 597.39 C 385.58 596.61 386.49 596.27 387.99 596.20 C 392.67 595.74 397.31 595.62 402.00 595.48 Z" fill="#ffffff" />
<path d="M 338.98 599.85 C 340.58 599.70 342.04 599.46 343.53 600.24 C 340.86 606.28 339.11 612.75 336.87 618.97 C 333.46 628.38 330.27 637.86 327.19 647.38 C 326.73 647.42 326.27 647.46 325.82 647.50 C 319.42 632.33 312.81 617.22 306.13 602.18 C 311.09 601.17 316.06 601.80 321.07 601.12 C 327.02 600.27 333.02 600.63 338.98 599.85 Z" fill="#ffffff" />
<path d="M 365.57 699.54 C 384.84 702.23 402.68 708.48 420.66 715.66 C 442.26 724.72 463.34 734.94 483.60 746.70 C 498.25 754.69 512.36 763.55 526.23 772.81 C 527.15 773.35 527.71 774.10 527.91 775.04 C 526.77 776.26 525.36 777.17 523.94 778.03 C 518.09 781.10 511.95 783.51 505.69 785.59 C 498.86 787.80 492.19 789.78 485.00 790.39 C 481.24 790.45 477.38 789.18 473.72 788.36 C 466.18 786.58 459.04 783.78 451.77 781.17 C 442.74 777.72 433.75 774.21 425.07 769.90 C 418.07 766.39 410.64 763.91 403.67 760.36 C 395.99 756.51 388.11 753.18 380.29 749.66 C 371.29 745.56 363.53 740.04 355.24 734.77 C 344.43 727.68 333.52 721.01 323.10 713.28 C 321.12 711.36 319.08 709.59 316.89 707.92 C 319.89 705.01 323.55 703.54 327.37 701.98 C 339.53 697.59 352.92 697.36 365.57 699.54 Z" fill="#c11d2c" />
</svg>