<svg width="1617" height="302" viewBox="0 0 1617 302" fill="none"
  xmlns="http://www.w3.org/2000/svg">
  <path d="M444.671 222.2C433.671 222.2 423.405 220.147 413.871 216.04C404.338 211.933 395.978 206.287 388.791 199.1C381.605 191.767 375.958 183.333 371.851 173.8C367.891 164.12 365.911 153.78 365.911 142.78C365.911 131.78 367.891 121.513 371.851 111.98C375.958 102.447 381.531 94.0867 388.571 86.9C395.758 79.5667 404.045 73.92 413.431 69.96C422.965 65.8533 433.231 63.8 444.231 63.8C455.231 63.8 465.425 65.8533 474.811 69.96C484.345 73.92 492.705 79.5667 499.891 86.9C507.078 94.0867 512.651 102.52 516.611 112.2C520.718 121.733 522.771 132 522.771 143C522.771 154 520.718 164.34 516.611 174.02C512.651 183.553 507.078 191.913 499.891 199.1C492.851 206.287 484.565 211.933 475.031 216.04C465.645 220.147 455.525 222.2 444.671 222.2ZM444.231 198C454.645 198 463.738 195.653 471.511 190.96C479.431 186.267 485.591 179.813 489.991 171.6C494.538 163.24 496.811 153.633 496.811 142.78C496.811 134.713 495.491 127.38 492.851 120.78C490.358 114.033 486.765 108.24 482.071 103.4C477.378 98.4133 471.805 94.6 465.351 91.96C459.045 89.32 452.005 88 444.231 88C433.965 88 424.871 90.3467 416.951 95.04C409.178 99.5867 403.018 105.967 398.471 114.18C394.071 122.393 391.871 131.927 391.871 142.78C391.871 150.847 393.118 158.327 395.611 165.22C398.251 171.967 401.845 177.76 406.391 182.6C411.085 187.44 416.658 191.253 423.111 194.04C429.565 196.68 436.605 198 444.231 198ZM601.739 222.2C593.673 222.2 586.486 220.513 580.179 217.14C573.873 213.62 568.886 208.853 565.219 202.84C561.699 196.827 559.939 190.007 559.939 182.38V152.02C559.939 144.393 561.773 137.573 565.439 131.56C569.106 125.547 574.093 120.853 580.399 117.48C586.706 113.96 593.819 112.2 601.739 112.2C611.273 112.2 619.853 114.693 627.479 119.68C635.253 124.52 641.339 131.12 645.739 139.48C650.286 147.693 652.559 157.007 652.559 167.42C652.559 177.687 650.286 187 645.739 195.36C641.339 203.573 635.253 210.1 627.479 214.94C619.853 219.78 611.273 222.2 601.739 222.2ZM597.779 199.32C603.646 199.32 608.779 198 613.179 195.36C617.726 192.573 621.246 188.76 623.739 183.92C626.379 179.08 627.699 173.507 627.699 167.2C627.699 160.893 626.379 155.32 623.739 150.48C621.246 145.64 617.726 141.9 613.179 139.26C608.779 136.473 603.646 135.08 597.779 135.08C591.913 135.08 586.706 136.473 582.159 139.26C577.613 141.9 574.093 145.64 571.599 150.48C569.106 155.32 567.859 160.893 567.859 167.2C567.859 173.507 569.106 179.08 571.599 183.92C574.093 188.76 577.613 192.573 582.159 195.36C586.706 198 591.913 199.32 597.779 199.32ZM545.199 264V114.4H569.399V142.78L565.219 168.52L569.399 194.04V264H545.199ZM721.876 222.2C711.316 222.2 701.783 219.853 693.276 215.16C684.916 210.32 678.243 203.72 673.256 195.36C668.416 187 665.996 177.613 665.996 167.2C665.996 156.787 668.416 147.473 673.256 139.26C678.096 130.9 684.623 124.3 692.836 119.46C701.196 114.62 710.436 112.2 720.556 112.2C730.383 112.2 739.036 114.473 746.516 119.02C754.143 123.567 760.083 129.8 764.336 137.72C768.736 145.64 770.936 154.66 770.936 164.78C770.936 166.54 770.79 168.373 770.496 170.28C770.35 172.04 770.056 174.02 769.616 176.22H682.936V156.42H757.076L748.056 164.34C747.763 157.887 746.516 152.46 744.316 148.06C742.116 143.66 738.963 140.287 734.856 137.94C730.896 135.593 725.983 134.42 720.116 134.42C713.956 134.42 708.603 135.74 704.056 138.38C699.51 141.02 695.99 144.76 693.496 149.6C691.003 154.293 689.756 159.94 689.756 166.54C689.756 173.14 691.076 178.933 693.716 183.92C696.356 188.907 700.096 192.793 704.936 195.58C709.776 198.22 715.35 199.54 721.656 199.54C727.083 199.54 732.07 198.587 736.616 196.68C741.31 194.773 745.27 191.987 748.496 188.32L763.896 203.94C758.763 209.953 752.53 214.5 745.196 217.58C737.863 220.66 730.09 222.2 721.876 222.2ZM862.716 220V159.06C862.716 152.02 860.443 146.227 855.896 141.68C851.496 137.133 845.776 134.86 838.736 134.86C834.043 134.86 829.863 135.887 826.196 137.94C822.529 139.993 819.669 142.853 817.616 146.52C815.563 150.187 814.536 154.367 814.536 159.06L805.076 153.78C805.076 145.713 806.836 138.6 810.356 132.44C813.876 126.133 818.716 121.22 824.876 117.7C831.183 114.033 838.223 112.2 845.996 112.2C853.916 112.2 860.956 114.253 867.116 118.36C873.276 122.32 878.116 127.527 881.636 133.98C885.156 140.287 886.916 146.887 886.916 153.78V220H862.716ZM790.336 220V114.4H814.536V220H790.336ZM960.128 222.2C949.715 222.2 940.255 219.78 931.748 214.94C923.388 210.1 916.788 203.5 911.948 195.14C907.108 186.78 904.688 177.467 904.688 167.2C904.688 156.787 907.108 147.473 911.948 139.26C916.788 130.9 923.388 124.3 931.748 119.46C940.255 114.62 949.715 112.2 960.128 112.2C968.341 112.2 975.968 113.813 983.008 117.04C990.195 120.12 996.281 124.593 1001.27 130.46L985.428 146.52C982.348 142.853 978.608 140.14 974.208 138.38C969.955 136.473 965.261 135.52 960.128 135.52C954.115 135.52 948.761 136.913 944.068 139.7C939.521 142.34 935.928 146.007 933.288 150.7C930.795 155.393 929.548 160.893 929.548 167.2C929.548 173.36 930.795 178.86 933.288 183.7C935.928 188.393 939.521 192.133 944.068 194.92C948.761 197.56 954.115 198.88 960.128 198.88C965.261 198.88 969.955 198 974.208 196.24C978.608 194.333 982.348 191.547 985.428 187.88L1001.27 203.94C996.281 209.807 990.195 214.353 983.008 217.58C975.968 220.66 968.341 222.2 960.128 222.2ZM1064.97 222.2C1054.7 222.2 1045.39 219.78 1037.03 214.94C1028.67 209.953 1021.99 203.28 1017.01 194.92C1012.17 186.56 1009.75 177.247 1009.75 166.98C1009.75 156.713 1012.17 147.473 1017.01 139.26C1021.99 131.047 1028.67 124.52 1037.03 119.68C1045.39 114.693 1054.7 112.2 1064.97 112.2C1075.38 112.2 1084.77 114.62 1093.13 119.46C1101.49 124.3 1108.09 130.9 1112.93 139.26C1117.91 147.473 1120.41 156.713 1120.41 166.98C1120.41 177.247 1117.91 186.56 1112.93 194.92C1108.09 203.28 1101.49 209.953 1093.13 214.94C1084.77 219.78 1075.38 222.2 1064.97 222.2ZM1064.97 198.88C1070.98 198.88 1076.26 197.56 1080.81 194.92C1085.5 192.133 1089.09 188.32 1091.59 183.48C1094.23 178.64 1095.55 173.14 1095.55 166.98C1095.55 160.82 1094.23 155.393 1091.59 150.7C1088.95 146.007 1085.35 142.34 1080.81 139.7C1076.26 136.913 1070.98 135.52 1064.97 135.52C1059.1 135.52 1053.82 136.913 1049.13 139.7C1044.58 142.34 1040.99 146.007 1038.35 150.7C1035.85 155.393 1034.61 160.82 1034.61 166.98C1034.61 173.14 1035.85 178.64 1038.35 183.48C1040.99 188.32 1044.58 192.133 1049.13 194.92C1053.82 197.56 1059.1 198.88 1064.97 198.88ZM1140.53 220V114.4H1164.73V220H1140.53ZM1164.73 161.26L1156.37 157.08C1156.37 143.733 1159.3 132.953 1165.17 124.74C1171.18 116.38 1180.2 112.2 1192.23 112.2C1197.51 112.2 1202.28 113.153 1206.53 115.06C1210.78 116.967 1214.74 120.047 1218.41 124.3L1202.57 140.58C1200.66 138.527 1198.54 137.06 1196.19 136.18C1193.84 135.3 1191.13 134.86 1188.05 134.86C1181.3 134.86 1175.73 136.987 1171.33 141.24C1166.93 145.493 1164.73 152.167 1164.73 161.26ZM1271.12 222.2C1261.59 222.2 1252.93 219.78 1245.16 214.94C1237.53 210.1 1231.45 203.573 1226.9 195.36C1222.5 187 1220.3 177.687 1220.3 167.42C1220.3 157.007 1222.5 147.693 1226.9 139.48C1231.45 131.12 1237.53 124.52 1245.16 119.68C1252.93 114.693 1261.59 112.2 1271.12 112.2C1279.19 112.2 1286.3 113.96 1292.46 117.48C1298.77 120.853 1303.75 125.547 1307.42 131.56C1311.09 137.573 1312.92 144.393 1312.92 152.02V182.38C1312.92 190.007 1311.09 196.827 1307.42 202.84C1303.9 208.853 1298.99 213.62 1292.68 217.14C1286.37 220.513 1279.19 222.2 1271.12 222.2ZM1275.08 199.32C1281.09 199.32 1286.3 198 1290.7 195.36C1295.25 192.573 1298.77 188.76 1301.26 183.92C1303.75 179.08 1305 173.507 1305 167.2C1305 160.893 1303.75 155.32 1301.26 150.48C1298.77 145.64 1295.25 141.9 1290.7 139.26C1286.3 136.473 1281.17 135.08 1275.3 135.08C1269.29 135.08 1264.01 136.473 1259.46 139.26C1255.06 141.9 1251.54 145.64 1248.9 150.48C1246.41 155.32 1245.16 160.893 1245.16 167.2C1245.16 173.507 1246.41 179.08 1248.9 183.92C1251.54 188.76 1255.06 192.573 1259.46 195.36C1264.01 198 1269.21 199.32 1275.08 199.32ZM1327.66 220H1303.46V191.62L1307.64 165.88L1303.46 140.36V61.6H1327.66V220ZM1373 222.2C1368.3 222.2 1364.42 220.66 1361.34 217.58C1358.4 214.353 1356.94 210.467 1356.94 205.92C1356.94 201.227 1358.4 197.34 1361.34 194.26C1364.42 191.18 1368.3 189.64 1373 189.64C1377.69 189.64 1381.5 191.18 1384.44 194.26C1387.52 197.34 1389.06 201.227 1389.06 205.92C1389.06 210.467 1387.52 214.353 1384.44 217.58C1381.5 220.66 1377.69 222.2 1373 222.2ZM1410.18 220L1473.54 66H1491.14L1554.06 220H1526.78L1477.5 95.26H1486.74L1437.02 220H1410.18ZM1441.42 190.3V168.3H1523.04V190.3H1441.42ZM1574.38 220V66H1599.68V220H1574.38Z" fill="#00D179"/>
  <path fill-rule="evenodd" clip-rule="evenodd" d="M94.1026 84.3414C103.359 87.2711 101.053 100.85 91.6688 103.34C59.8538 111.78 29.959 129.865 4.98593 149.863C-0.747309 154.455 -1.67191 162.823 2.91948 168.556C7.50871 174.29 15.8803 175.216 21.6135 170.625C35.3409 159.63 49.1836 150.672 62.6272 143.694C71.2435 139.221 79.2161 150.452 74.3417 158.847C57.8169 187.31 49.4638 221.226 45.9459 253.027C45.1381 260.327 50.4017 266.901 57.7032 267.708C58.7922 267.829 59.8656 267.813 60.9076 267.676C61.5619 267.589 62.2039 267.456 62.8273 267.279C64.0999 266.914 65.3007 266.36 66.3938 265.651C69.6268 263.554 71.9279 260.08 72.3849 255.952C74.3189 238.474 77.7716 222.352 82.3407 207.911C85.2697 198.654 98.8517 200.959 101.342 210.344C109.783 242.154 127.865 272.044 147.861 297.013C152.452 302.746 160.821 303.673 166.555 299.081C172.288 294.49 173.215 286.12 168.623 280.387C157.623 266.652 148.66 252.801 141.677 239.349C137.205 230.733 148.432 222.764 156.827 227.64C185.293 244.175 219.214 252.532 251.028 256.051C258.328 256.858 264.902 251.595 265.71 244.296C266.516 236.992 261.254 230.422 253.953 229.615C236.481 227.682 220.366 224.232 205.931 219.666C196.672 216.738 198.978 203.151 208.363 200.658C240.167 192.213 270.057 174.123 295.014 154.137C300.747 149.546 301.672 141.178 297.081 135.444C292.491 129.71 284.12 128.785 278.387 133.376C264.644 144.382 250.787 153.347 237.33 160.33C228.715 164.801 220.751 153.578 225.627 145.186C242.168 116.717 250.531 82.7975 254.052 50.9691C254.86 43.6699 249.596 37.0954 242.295 36.2887C234.996 35.4811 228.421 40.7448 227.613 48.044C225.68 65.5249 222.227 81.6483 217.657 96.0906C214.728 105.347 201.148 103.043 198.658 93.6582C190.217 61.8479 172.136 31.9575 152.139 6.98779C151.515 6.20828 150.821 5.52014 150.074 4.92206C149.718 4.63352 149.35 4.37074 148.968 4.12413C147.069 2.89692 144.908 2.19449 142.705 2.0354C141.177 1.92362 139.633 2.07637 138.137 2.49625C136.476 2.96715 134.878 3.77056 133.445 4.9195C127.712 9.51095 126.785 17.8803 131.377 23.6134C142.377 37.3485 151.34 51.2002 158.323 64.6521C162.795 73.2682 151.568 81.2362 143.174 76.3599C114.708 59.8233 80.7881 51.4648 48.9698 47.9456C41.6704 47.138 35.0958 52.4017 34.288 59.7009C33.4822 67.0045 38.7439 73.5746 46.0454 74.3813C63.5302 76.3151 79.6577 79.7695 94.1026 84.3414ZM186.986 143.743C186.986 135.936 180.657 129.608 172.851 129.608C165.044 129.608 158.715 135.936 158.715 143.743V160.706C158.715 168.513 165.044 174.841 172.851 174.841C180.657 174.841 186.986 168.513 186.986 160.706V143.743ZM127.617 129.608C135.424 129.608 141.753 135.936 141.753 143.743V160.706C141.753 168.513 135.424 174.841 127.617 174.841C119.81 174.841 113.482 168.513 113.482 160.706V143.743C113.482 135.936 119.81 129.608 127.617 129.608Z" fill="url(#paint0_linear_118_627)"/>
  <defs>
    <linearGradient id="paint0_linear_118_627" x1="167.262" y1="92.5472" x2="17.5882" y2="249.719" gradientUnits="userSpaceOnUse">
      <stop stop-color="#00D179"/>
      <stop offset="1" stop-color="#16B8F3"/>
    </linearGradient>
  </defs>
</svg>
